<svg width="235" height="24" fill="none" xmlns="http://www.w3.org/2000/svg"><path fill-rule="evenodd" clip-rule="evenodd" d="M74.751 22.86c0 .506-.255.76-.766.76H64.99a.745.745 0 0 1-.53-.19c-.136-.127-.204-.306-.204-.537a.77.77 0 0 1 .139-.48.977.977 0 0 1 .431-.297l.701-.215a.73.73 0 0 0 .408-.314c.098-.154.147-.375.147-.661v-9.554a.643.643 0 0 0-.115-.389c-.076-.104-.217-.2-.423-.289l-.946-.314c-.25-.121-.429-.25-.537-.388a.789.789 0 0 1-.163-.504c0-.199.067-.361.203-.488l.054-.045a.83.83 0 0 1 .508-.145h1.43l-.01-.097a1.345 1.345 0 0 0-.23-.556l-.554-.802a5.237 5.237 0 0 1-.554-1.066c-.163-.413-.244-.923-.244-1.529 0-1.443.489-2.597 1.466-3.462C66.944.433 68.336 0 70.14 0c1.163 0 2.127.187 2.893.562.766.375 1.34.873 1.72 1.496.38.622.57 1.303.57 2.041 0 .87-.226 1.524-.677 1.959-.45.435-1.029.653-1.735.653-.783 0-1.413-.254-1.891-.76-.478-.507-.717-1.18-.717-2.017V2.463c0-.386-.076-.67-.228-.851-.152-.182-.386-.273-.701-.273-.402 0-.706.138-.913.413-.206.276-.31.672-.31 1.19 0 .53.123 1.025.367 1.488.245.463.546.895.905 1.297.358.402.717.788 1.076 1.157.358.37.66.733.904 1.091l.07.108c.132.214.22.428.264.64l.015.087h2.414c.25 0 .442.052.578.157.136.105.204.267.204.488 0 .33-.141.6-.424.81-.282.209-.728.313-1.336.313H72.03v10.298c0 .309.046.546.138.71a.589.589 0 0 0 .448.298l1.402.215c.25.033.435.113.554.24.12.127.18.3.18.52Zm-32.092.38c-.978.474-2.118.71-3.422.71-1.38 0-2.616-.292-3.708-.876a6.4 6.4 0 0 1-2.584-2.537c-.63-1.107-.945-2.454-.945-4.041 0-1.532.329-2.901.986-4.108a7.379 7.379 0 0 1 2.746-2.86c1.174-.699 2.543-1.049 4.108-1.049 1.336 0 2.463.199 3.382.595.918.397 1.619.934 2.102 1.612a3.82 3.82 0 0 1 .726 2.273c0 .881-.253 1.573-.758 2.074-.506.501-1.193.752-2.062.752-.891 0-1.568-.256-2.03-.768-.461-.513-.692-1.215-.692-2.108v-1.058c0-.54-.098-.947-.294-1.223-.195-.275-.472-.413-.83-.413-.36 0-.682.146-.97.438-.288.292-.511.73-.669 1.314-.157.584-.236 1.306-.236 2.165 0 1.234.182 2.27.546 3.108.364.837.861 1.465 1.491 1.884.63.419 1.348.628 2.152.628s1.477-.118 2.02-.355c.544-.237.962-.637 1.256-1.199.163-.154.29-.253.383-.297a.622.622 0 0 1 .269-.066.374.374 0 0 1 .269.157c.07.093.1.24.09.438-.088 1.08-.42 2.033-.995 2.86-.576.826-1.353 1.476-2.33 1.95Zm16.568-.33c-1.222.671-2.643 1.007-4.262 1.007-1.576 0-2.958-.328-4.148-.983a7.068 7.068 0 0 1-2.78-2.72c-.662-1.156-.993-2.495-.993-4.016 0-1.454.347-2.763 1.043-3.925.695-1.163 1.657-2.086 2.885-2.769 1.227-.683 2.64-1.025 4.237-1.025 1.587 0 2.972.33 4.156.992a7.106 7.106 0 0 1 2.771 2.744c.663 1.168.994 2.518.994 4.05 0 1.454-.345 2.757-1.035 3.909-.69 1.151-1.646 2.063-2.868 2.735Zm-3.023-.712c-.337.067-.666-.082-.986-.446-.321-.364-.625-.975-.913-1.835-.288-.86-.563-1.989-.823-3.388-.25-1.4-.392-2.551-.424-3.455-.033-.903.032-1.586.196-2.05.163-.462.412-.732.75-.81.336-.065.665.083.985.447.32.364.628.975.921 1.835.294.86.57 1.989.831 3.388.261 1.4.405 2.554.432 3.463.027.91-.043 1.595-.212 2.058-.168.463-.42.727-.758.793Zm29.158 1.422c.51 0 .766-.254.766-.76 0-.22-.06-.394-.18-.521-.119-.127-.304-.207-.553-.24l-1.402-.215a.589.589 0 0 1-.448-.297c-.093-.165-.139-.402-.139-.711V10.578h1.157c.609 0 1.054-.104 1.337-.313.282-.21.423-.48.423-.81 0-.22-.067-.383-.203-.488-.136-.105-.329-.157-.579-.157h-2.414l-.015-.087a1.998 1.998 0 0 0-.264-.64l-.07-.108a8.285 8.285 0 0 0-.904-1.09c-.359-.37-.717-.756-1.076-1.158a6.525 6.525 0 0 1-.904-1.297 3.138 3.138 0 0 1-.367-1.488c0-.518.103-.914.31-1.19.206-.275.51-.413.912-.413.315 0 .55.09.701.273.152.181.228.465.228.85v1.472c0 .837.24 1.51.718 2.016.478.507 1.108.76 1.89.76.706 0 1.285-.217 1.736-.652.45-.435.676-1.088.676-1.959 0-.738-.19-1.419-.57-2.041-.38-.623-.954-1.121-1.72-1.496S82.678 0 81.515 0c-1.803 0-3.194.433-4.172 1.298-.978.865-1.467 2.019-1.467 3.462 0 .606.081 1.116.245 1.53.163.412.347.768.554 1.065l.554.802c.122.178.198.363.229.556l.011.097h-1.43a.83.83 0 0 0-.509.145L75.477 9a.637.637 0 0 0-.204.488c0 .198.054.366.163.504.109.137.288.267.538.388l.945.314c.207.088.348.185.424.29a.643.643 0 0 1 .114.388v9.554c0 .286-.049.507-.147.66a.73.73 0 0 1-.407.315l-.701.215a.977.977 0 0 0-.432.297.77.77 0 0 0-.138.48c0 .231.067.41.203.537.136.127.313.19.53.19h8.997Zm12.762-.48c-1.054.54-2.271.81-3.651.81-1.521 0-2.858-.316-4.01-.95a6.822 6.822 0 0 1-2.697-2.661c-.647-1.14-.97-2.46-.97-3.959 0-1.576.313-2.956.937-4.14a6.684 6.684 0 0 1 2.714-2.769c1.184-.661 2.608-.992 4.27-.992 1.413 0 2.63.279 3.651.835 1.022.557 1.807 1.311 2.355 2.264.549.954.823 2.014.823 3.182 0 .507-.135.907-.407 1.199l-.065.064c-.268.25-.637.374-1.108.374h-7.451l.016.076c.197.907.535 1.634 1.013 2.18.815.931 1.901 1.397 3.26 1.397.869 0 1.638-.199 2.306-.596.668-.396 1.116-.947 1.344-1.652.131-.144.248-.24.351-.29a.64.64 0 0 1 .269-.074c.108 0 .201.044.277.132.076.088.114.237.114.447a5.31 5.31 0 0 1-.88 2.966c-.587.898-1.407 1.617-2.461 2.157Zm-5.78-8.068a12.888 12.888 0 0 1-.023-.791c0-1.036.076-1.851.229-2.446.152-.595.347-1.017.586-1.265.24-.248.506-.372.799-.372.38 0 .736.325 1.067.976.332.65.498 1.73.498 3.24 0 .462-.207.693-.62.693h-2.533l-.002-.035Zm21.361 8.069c-1.054.54-2.271.81-3.651.81-1.521 0-2.857-.317-4.009-.951a6.825 6.825 0 0 1-2.698-2.661c-.646-1.14-.969-2.46-.969-3.959 0-1.576.312-2.956.937-4.14a6.682 6.682 0 0 1 2.714-2.769c1.184-.661 2.607-.992 4.27-.992 1.412 0 2.629.279 3.651.835 1.021.557 1.806 1.311 2.355 2.264.549.954.823 2.014.823 3.182 0 .507-.136.907-.407 1.199l-.065.064c-.268.25-.638.374-1.109.374h-7.451l.016.076c.198.907.536 1.634 1.013 2.18.815.931 1.902 1.397 3.26 1.397.869 0 1.638-.199 2.306-.596.669-.396 1.117-.947 1.345-1.652.13-.144.247-.24.35-.29a.644.644 0 0 1 .269-.074c.109 0 .201.044.277.132.076.088.114.237.114.447a5.31 5.31 0 0 1-.88 2.966c-.586.898-1.407 1.617-2.461 2.157Zm-5.779-8.07a13.39 13.39 0 0 1-.023-.79c0-1.036.076-1.851.228-2.446.152-.595.348-1.017.587-1.265s.505-.372.799-.372c.38 0 .736.325 1.067.976.331.65.497 1.73.497 3.24 0 .462-.206.693-.619.693h-2.534l-.002-.035Zm19.674 8.342c-.136.138-.334.207-.595.207h-8.149c-.239 0-.427-.066-.563-.198-.135-.133-.203-.315-.203-.546 0-.176.04-.322.122-.438.081-.116.193-.223.334-.322l.375-.15a.55.55 0 0 0 .293-.313c.055-.143.082-.38.082-.71v-8.398c0-.264-.03-.454-.09-.57a.619.619 0 0 0-.301-.272l-.424-.05a1.04 1.04 0 0 1-.334-.281.637.637 0 0 1-.106-.38c0-.177.054-.334.163-.471.108-.138.293-.257.554-.356l4.629-1.339c.271-.11.499-.187.684-.231a2.09 2.09 0 0 1 .473-.066c.185 0 .323.066.415.198l.03.048c.076.138.129.36.158.663l.124 2.568.028-.094a6.54 6.54 0 0 1 .182-.515c.397-.986.921-1.72 1.573-2.199.652-.479 1.364-.719 2.135-.719.934 0 1.652.314 2.151.942.5.629.75 1.582.75 2.86 0 1.267-.261 2.198-.782 2.793-.522.595-1.195.893-2.021.893-.804 0-1.399-.204-1.785-.612-.386-.407-.589-.986-.611-1.735l-.016-.661c-.011-.254-.06-.452-.147-.595-.087-.144-.228-.215-.424-.215-.195 0-.367.102-.513.306-.147.203-.258.515-.334.933-.076.42-.114.954-.114 1.604v5.818c0 .309.048.554.146.736.098.181.25.294.457.338l1.222.248c.228.033.391.119.489.256a.82.82 0 0 1 .147.488c0 .22-.068.4-.204.537Zm13.031.504c1.619 0 3.039-.336 4.262-1.008 1.222-.672 2.178-1.584 2.868-2.735.69-1.152 1.035-2.455 1.035-3.91 0-1.531-.331-2.881-.994-4.05a7.104 7.104 0 0 0-2.771-2.743c-1.184-.661-2.569-.992-4.156-.992-1.597 0-3.01.342-4.238 1.025-1.227.683-2.189 1.606-2.884 2.769-.696 1.162-1.043 2.47-1.043 3.925 0 1.521.331 2.86.994 4.017a7.068 7.068 0 0 0 2.779 2.719c1.189.655 2.572.983 4.148.983Zm.252-2.165c.321.364.65.513.986.446.337-.066.59-.33.758-.793.169-.463.239-1.149.212-2.058-.027-.909-.171-2.063-.432-3.463s-.538-2.529-.831-3.388c-.293-.86-.6-1.471-.921-1.835-.32-.364-.649-.512-.986-.446-.337.077-.587.347-.75.81-.163.463-.228 1.146-.195 2.05.032.903.174 2.055.423 3.454.261 1.4.536 2.529.824 3.388.288.86.592 1.471.912 1.835Zm20.838 2.198c.913 0 1.663-.168 2.249-.504.587-.336 1.024-.735 1.312-1.198.288-.463.432-.887.432-1.273a.748.748 0 0 0-.106-.413.323.323 0 0 0-.285-.165.323.323 0 0 0-.147.033.331.331 0 0 0-.114.099c-.054.198-.138.336-.252.413a.644.644 0 0 1-.367.116c-.185 0-.323-.064-.416-.19-.092-.127-.138-.295-.138-.504v-7.306c0-1.455-.492-2.581-1.475-3.38-.984-.8-2.524-1.199-4.621-1.199-1.63 0-2.991.204-4.083.612-1.092.408-1.912.928-2.461 1.562-.548.633-.823 1.28-.823 1.942 0 .705.204 1.242.611 1.612.408.369.997.553 1.769.553.945 0 1.689-.256 2.233-.768.543-.513.815-1.177.815-1.992v-1.256c0-.309.095-.548.285-.72.19-.17.426-.255.709-.255.304 0 .546.113.725.338.179.226.269.532.269.918v4.818l-.087-.019a5.463 5.463 0 0 0-.911-.087l-.175-.002c-2.337 0-4.078.397-5.224 1.19-1.146.794-1.72 1.901-1.72 3.323 0 1.08.394 1.967 1.182 2.661.788.694 1.834 1.041 3.137 1.041a6.31 6.31 0 0 0 2.739-.603c.635-.302 1.152-.698 1.549-1.188l.023-.03.024.075c.125.357.354.677.688.96l.103.084c.603.468 1.454.702 2.551.702Zm-5.615-3.115a1.25 1.25 0 0 0 1.052.537l.093-.003c.185-.013.364-.065.538-.155l.053-.03v-4.242l-.081-.025a2.533 2.533 0 0 0-.652-.074c-.424 0-.764.198-1.019.595-.255.397-.383.98-.383 1.752 0 .738.133 1.287.399 1.645ZM173.212 24c1.934 0 3.417-.446 4.449-1.339 1.033-.892 1.549-2.11 1.549-3.653 0-.936-.174-1.757-.522-2.462-.348-.706-.956-1.331-1.825-1.877-.87-.545-2.092-1.06-3.668-1.545-.586-.187-1.04-.377-1.361-.57-.32-.193-.54-.4-.66-.62a1.474 1.474 0 0 1-.179-.71c0-.376.136-.678.408-.91.271-.231.673-.347 1.206-.347.739 0 1.437.248 2.094.744.657.496 1.383 1.344 2.176 2.545.206.254.413.438.619.554.207.116.402.151.587.107a.576.576 0 0 0 .424-.454c.054-.237.043-.576-.033-1.017l-.424-3.041c-.043-.32-.125-.545-.244-.678a.607.607 0 0 0-.473-.198c-.174 0-.391.06-.652.182-.26.121-.519.245-.774.372-.255.126-.448.19-.578.19-.12 0-.297-.066-.53-.199-.234-.132-.562-.264-.986-.396-.424-.133-.973-.199-1.646-.199-1.12 0-2.127.204-3.024.612-.896.408-1.603.989-2.119 1.744-.516.754-.774 1.655-.774 2.702 0 .926.193 1.736.579 2.43.386.694.975 1.29 1.768 1.785.793.496 1.793.898 2.999 1.207.782.209 1.383.421 1.801.636.418.215.706.45.864.703.158.253.236.534.236.843 0 .407-.136.743-.407 1.008-.272.264-.685.396-1.239.396a3.415 3.415 0 0 1-1.491-.338c-.473-.226-.959-.615-1.459-1.166-.5-.55-1.059-1.306-1.679-2.264a1.524 1.524 0 0 0-.627-.53.84.84 0 0 0-.709.018c-.228.088-.375.275-.44.561-.065.287-.049.64.049 1.058l.505 3.29c.076.33.185.55.326.66.141.11.293.166.456.166.185 0 .41-.06.677-.182l.798-.364c.266-.12.481-.181.644-.181.163 0 .378.06.644.181.266.122.614.243 1.043.364.429.121.97.182 1.622.182Zm15.451-.62c-.717.38-1.565.57-2.543.57-1.651 0-2.893-.402-3.724-1.206-.831-.805-1.247-2.072-1.247-3.802v-7.47c0-.232-.022-.409-.065-.53-.043-.121-.152-.22-.326-.297l-.766-.248c-.185-.088-.304-.196-.359-.323a1.204 1.204 0 0 1-.081-.47c0-.232.081-.422.244-.57a.861.861 0 0 1 .603-.224h.799a.543.543 0 0 0 .31-.116c.108-.077.255-.231.44-.463l3.015-2.529a2.83 2.83 0 0 1 .652-.603 1.21 1.21 0 0 1 .652-.206c.25 0 .445.077.587.231l.044.055c.112.154.168.378.168.672l-.001 2.959h3.407c.239 0 .424.052.554.157.131.105.196.267.196.488 0 .308-.136.572-.408.793l-.06.046c-.274.19-.689.284-1.244.284h-2.445l.001 7.538c0 .826.138 1.438.415 1.834.277.397.682.596 1.214.596.229 0 .441-.05.636-.15.196-.099.372-.228.53-.388a4.42 4.42 0 0 0 .448-.537c.141-.198.277-.397.408-.595a.242.242 0 0 1 .285.058c.081.082.117.25.106.504-.076.893-.324 1.678-.742 2.355a4.364 4.364 0 0 1-1.703 1.587Zm10.676.57c1.379 0 2.596-.27 3.65-.81 1.054-.54 1.875-1.259 2.462-2.157.586-.898.88-1.887.88-2.966 0-.21-.038-.359-.114-.447a.356.356 0 0 0-.278-.132.636.636 0 0 0-.268.074 1.24 1.24 0 0 0-.351.29c-.228.705-.676 1.256-1.345 1.652-.668.397-1.437.596-2.306.596-1.358 0-2.445-.466-3.26-1.397-.477-.546-.815-1.273-1.013-2.18l-.016-.076h7.451c.472 0 .841-.125 1.109-.373l.065-.065c.271-.292.407-.692.407-1.199 0-1.168-.274-2.228-.823-3.181-.549-.954-1.334-1.708-2.355-2.265-1.022-.556-2.238-.835-3.651-.835-1.662 0-3.086.33-4.27.992a6.682 6.682 0 0 0-2.714 2.769c-.625 1.184-.937 2.564-.937 4.14 0 1.499.323 2.818.97 3.959A6.816 6.816 0 0 0 195.329 23c1.152.634 2.488.95 4.01.95Zm-2.152-9.669c0 .274.008.537.023.79l.002.036h2.534c.413 0 .619-.231.619-.694 0-1.51-.165-2.59-.497-3.24-.331-.65-.687-.975-1.067-.975-.294 0-.56.124-.799.372s-.435.67-.587 1.265c-.152.595-.228 1.41-.228 2.446Zm19.102 9.339c.261 0 .459-.069.595-.207a.732.732 0 0 0 .204-.537.82.82 0 0 0-.147-.488c-.098-.137-.261-.223-.489-.256l-1.222-.248a.647.647 0 0 1-.457-.338c-.097-.182-.146-.427-.146-.736v-5.818c0-.65.038-1.185.114-1.604.076-.418.187-.73.334-.934.147-.203.318-.305.513-.305.196 0 .337.071.424.215.087.143.136.341.147.595l.016.66c.022.75.225 1.329.611 1.736.386.408.981.612 1.785.612.826 0 1.499-.298 2.021-.893.522-.595.782-1.526.782-2.793 0-1.278-.25-2.231-.749-2.86-.5-.628-1.217-.942-2.152-.942-.771 0-1.483.24-2.135.72-.652.479-1.176 1.212-1.573 2.198a6.973 6.973 0 0 0-.182.515l-.028.095-.124-2.569c-.029-.304-.081-.525-.158-.663l-.029-.048c-.093-.132-.231-.198-.416-.198-.13 0-.288.022-.473.066a4.95 4.95 0 0 0-.684.231l-4.629 1.34c-.261.098-.446.217-.554.355a.738.738 0 0 0-.163.47c0 .155.035.282.106.38.07.1.182.194.334.282l.424.05a.619.619 0 0 1 .301.272c.06.116.09.306.09.57v8.397c0 .33-.027.568-.082.71a.55.55 0 0 1-.293.315l-.375.149c-.141.099-.253.206-.334.322a.739.739 0 0 0-.122.438c0 .231.068.413.203.546.136.132.324.198.563.198h8.149Zm17.163-.959c-1.033.893-2.516 1.339-4.45 1.339-.652 0-1.192-.06-1.622-.182a7.492 7.492 0 0 1-1.043-.364c-.266-.12-.481-.181-.644-.181-.163 0-.377.06-.643.181l-.799.364c-.266.121-.492.182-.676.182a.731.731 0 0 1-.457-.165c-.141-.11-.25-.33-.326-.661l-.505-3.29c-.098-.418-.114-.771-.049-1.058.065-.286.212-.473.44-.561a.84.84 0 0 1 .709-.017c.234.1.443.275.628.529.619.958 1.179 1.713 1.678 2.264.5.551.987.94 1.459 1.166.473.226.97.338 1.492.338.554 0 .967-.132 1.238-.396.272-.265.408-.6.408-1.009 0-.308-.079-.589-.237-.843-.157-.253-.445-.487-.863-.702-.419-.215-1.019-.427-1.801-.636-1.207-.309-2.206-.711-2.999-1.207-.794-.496-1.383-1.09-1.769-1.785-.386-.694-.578-1.504-.578-2.43 0-1.047.258-1.948.774-2.702.516-.755 1.222-1.336 2.119-1.744.896-.408 1.904-.612 3.023-.612.674 0 1.222.066 1.646.199.424.132.753.264.986.396.234.133.41.199.53.199.13 0 .323-.064.579-.19.255-.127.513-.251.774-.372.26-.121.478-.182.652-.182.195 0 .353.066.472.198.12.133.201.358.245.678l.424 3.041c.076.441.086.78.032 1.017a.573.573 0 0 1-.424.454c-.184.044-.38.009-.586-.107-.207-.116-.413-.3-.62-.554-.793-1.2-1.518-2.05-2.176-2.545-.657-.496-1.355-.744-2.094-.744-.532 0-.934.116-1.206.347a1.136 1.136 0 0 0-.408.91c0 .253.06.49.18.71.119.22.339.427.66.62.32.193.774.383 1.361.57 1.575.485 2.798 1 3.667 1.545.869.546 1.478 1.171 1.825 1.877.348.705.522 1.526.522 2.462 0 1.543-.516 2.76-1.548 3.653Z" fill="#555"/><path fill-rule="evenodd" clip-rule="evenodd" d="M13.49 3.003C9.974-.51 4.765-1.014 1.876 1.878-1.013 4.768-.508 9.978 3 13.49a10.606 10.606 0 0 0 3.153 2.164c.374-2.17 1.444-4.257 3.07-5.97a23.037 23.037 0 0 0-1.666-.511c-3.41-.936-5.106-3.782-5.502-7.118.328.394.626.807.923 1.219.577.8 1.15 1.594 1.929 2.234 1.21.997 2.538 1.381 3.992 1.802l.168.05a7.17 7.17 0 0 1 1.836.84c1.443-1.055 3.07-1.757 4.75-2.047a10.573 10.573 0 0 0-2.164-3.151ZM7.545 16.489c.224-2.173 1.277-4.299 2.964-5.986 3.515-3.512 8.724-4.019 11.613-1.125 2.89 2.89 2.387 8.1-1.126 11.613-1.688 1.688-3.813 2.74-5.987 2.965-.29.029-.576.044-.856.044-1.87 0-3.539-.655-4.769-1.886-1.416-1.414-2.07-3.412-1.839-5.625Zm5.14 1.784c1.153-.88 2.4-1.227 3.755-1.598 3.411-.936 5.105-3.781 5.502-7.117-.325.391-.62.802-.916 1.21-.578.803-1.154 1.6-1.935 2.243-1.214.998-2.546 1.383-4.006 1.806l-.155.045c-3.338.969-4.988 3.79-5.369 7.074.33-.395.63-.805.93-1.213.65-.886 1.293-1.761 2.195-2.45Z" fill="#0A775F"/></svg>