<svg width="115" height="32" fill="none" xmlns="http://www.w3.org/2000/svg"><path fill-rule="evenodd" clip-rule="evenodd" d="M10.45 23.549c-.87.353-1.816.53-2.838.53-1.458 0-2.764-.356-3.915-1.07-1.152-.712-2.056-1.689-2.712-2.93C.328 18.84 0 17.426 0 15.842c0-1.585.328-2.997.985-4.238.656-1.241 1.56-2.218 2.712-2.93 1.151-.714 2.457-1.07 3.915-1.07.98 0 1.892.166 2.736.499a7.368 7.368 0 0 1 2.25 1.386V0h4.503v23.762h-4.252l-.11-1.71a7 7 0 0 1-2.29 1.497Zm-4.666-4.65c.75.813 1.698 1.22 2.845 1.22 1.146 0 2.094-.407 2.844-1.22s1.126-1.832 1.126-3.057c0-1.226-.375-2.245-1.126-3.058-.75-.813-1.698-1.22-2.844-1.22-1.147 0-2.095.407-2.845 1.22s-1.126 1.832-1.126 3.058c0 1.225.375 2.244 1.126 3.057Zm23.103 5.18c1.084 0 2.217-.18 3.4-.538 1.182-.36 2.378-1.02 3.587-1.98l-2.72-3.296a7.8 7.8 0 0 1-1.946 1.37c-.714.354-1.613.531-2.696.531-1.011 0-1.894-.274-2.65-.823a4.154 4.154 0 0 1-1.555-2.139h12.192v-1.378c0-1.595-.354-3.01-1.063-4.246a7.772 7.772 0 0 0-2.9-2.915c-1.224-.707-2.623-1.061-4.196-1.061-1.584 0-2.999.356-4.244 1.07a7.898 7.898 0 0 0-2.947 2.914c-.719 1.23-1.078 2.633-1.078 4.206 0 1.595.375 3.018 1.125 4.27.75 1.25 1.787 2.233 3.11 2.946 1.324.713 2.85 1.07 4.58 1.07Zm-4.674-9.41h7.66c-.22-.93-.668-1.679-1.345-2.25-.677-.57-1.49-.855-2.438-.855-.96 0-1.79.29-2.494.872a4.047 4.047 0 0 0-1.383 2.233Zm30.106-6.748h-4.736l-2.61 7.715a23.21 23.21 0 0 0-.509 1.774 42.66 42.66 0 0 0-.477 2.075h-.062a32.34 32.34 0 0 0-.43-2.09c-.182-.772-.346-1.358-.492-1.76l-2.83-7.714h-4.892l6.487 15.841h4.377l6.174-15.841Zm5.893-3.549c-.459.465-1.063.697-1.813.697s-1.355-.232-1.813-.697c-.459-.464-.688-1.077-.688-1.837s.229-1.373.688-1.838C57.044.232 57.649 0 58.399 0s1.355.232 1.813.697c.459.465.688 1.077.688 1.838 0 .76-.23 1.373-.688 1.837ZM54.882 32c1.865 0 3.293-.504 4.283-1.513.99-1.008 1.485-2.453 1.485-4.332V7.92h-4.502v17.71c0 .75-.237 1.34-.711 1.767-.474.428-1.076.642-1.806.642a4.27 4.27 0 0 1-1.672-.365v3.739c.99.39 1.964.586 2.923.586ZM76 23.01c-1.25.713-2.678 1.07-4.283 1.07-1.605 0-3.035-.357-4.291-1.07a7.887 7.887 0 0 1-2.97-2.93c-.724-1.242-1.086-2.654-1.086-4.238 0-1.585.362-2.997 1.086-4.238a7.886 7.886 0 0 1 2.97-2.93c1.256-.714 2.686-1.07 4.29-1.07 1.606 0 3.033.356 4.284 1.07a7.903 7.903 0 0 1 2.962 2.93c.724 1.24 1.086 2.653 1.086 4.238 0 1.584-.362 2.996-1.086 4.237A7.904 7.904 0 0 1 76 23.01Zm-4.283-2.891c-1.147 0-2.095-.407-2.845-1.22s-1.126-1.832-1.126-3.057c0-1.226.376-2.245 1.126-3.058.75-.813 1.698-1.22 2.845-1.22 1.146 0 2.094.407 2.845 1.22.75.813 1.125 1.832 1.125 3.058 0 1.225-.375 2.244-1.125 3.057-.75.813-1.699 1.22-2.845 1.22Zm24.713 2.89c-1.146.714-2.454 1.07-3.924 1.07a7.478 7.478 0 0 1-2.829-.53 6.978 6.978 0 0 1-2.298-1.497l-.11 1.71h-4.25V0h4.501v9.49a7.368 7.368 0 0 1 2.251-1.387 7.394 7.394 0 0 1 2.736-.499c1.469 0 2.777.356 3.923 1.07 1.146.712 2.048 1.689 2.704 2.93.657 1.24.985 2.653.985 4.238 0 1.584-.328 2.996-.985 4.237-.656 1.241-1.558 2.218-2.704 2.93Zm-4.94-2.89c-1.146 0-2.094-.407-2.844-1.22s-1.126-1.832-1.126-3.057c0-1.226.375-2.245 1.126-3.058.75-.813 1.698-1.22 2.844-1.22 1.147 0 2.095.407 2.845 1.22s1.126 1.832 1.126 3.058c0 1.225-.375 2.244-1.126 3.057-.75.813-1.698 1.22-2.845 1.22Zm20.415 3.366c-.938.396-1.975.594-3.111.594-1.073 0-2.185-.19-3.337-.57-1.151-.38-2.253-.966-3.306-1.759l2.126-3.437c.896.602 1.722 1.08 2.477 1.434.756.353 1.431.53 2.025.53.458 0 .828-.105 1.11-.317.281-.21.422-.48.422-.808 0-.475-.264-.86-.79-1.156a17.059 17.059 0 0 0-1.821-.871 28.49 28.49 0 0 1-2.196-1.038 5.805 5.805 0 0 1-1.845-1.497c-.495-.612-.742-1.405-.742-2.376 0-1.341.524-2.445 1.571-3.311 1.047-.866 2.53-1.299 4.447-1.299.938 0 1.925.119 2.962.356a9.303 9.303 0 0 1 2.837 1.149l-1.985 3.47c-.458-.307-1.055-.579-1.79-.817-.734-.237-1.357-.356-1.868-.356-.291 0-.612.06-.961.182s-.524.357-.524.705c0 .39.243.713.727.966a18.42 18.42 0 0 0 1.727.777 26.6 26.6 0 0 1 2.22 1.006 5.965 5.965 0 0 1 1.931 1.536c.526.64.789 1.476.789 2.511 0 1.035-.281 1.928-.844 2.677-.563.75-1.313 1.323-2.251 1.72Z" fill="#fff"/></svg>