<svg width="69" height="17" viewBox="0 0 69 17" fill="none" xmlns="http://www.w3.org/2000/svg">
<path d="M0.0847656 16H2.82477V1.22H0.0847656V16ZM8.37898 16V10.14C8.37898 8.44 9.47898 7.24 11.019 7.24C12.459 7.24 13.399 8.28 13.399 10.1V16H16.019V9.38C16.019 7.92 15.599 6.82 14.779 6.04C13.959 5.26 12.939 4.86 11.759 4.86C10.179 4.86 8.91898 5.56 8.33898 6.66V5.14H5.77898V16H8.37898ZM25.2562 13.32C24.6362 13.7 24.0162 13.88 23.4162 13.88C22.3562 13.88 21.8362 13.22 21.8362 11.92V7.34H25.4762V5.14H21.8362V1.3H19.2562V5.14H17.4162V7.34H19.2162V12.02C19.2162 14.8 20.4762 16.26 22.9362 16.26C24.1562 16.26 25.2162 15.96 26.0762 15.36L25.2562 13.32ZM37.7424 10.34C37.7424 8.66 37.2424 7.34 36.2224 6.36C35.2224 5.38 33.9424 4.88 32.3624 4.88C30.7024 4.88 29.3424 5.42 28.2824 6.5C27.2424 7.56 26.7224 8.92 26.7224 10.56C26.7224 13.44 28.5224 16.24 32.6024 16.24C34.4024 16.24 35.9824 15.74 37.3224 14.74L36.2824 12.88C35.2224 13.62 34.0224 14 32.7024 14C30.8424 14 29.7224 13 29.3824 11.5H37.6624C37.7224 11.02 37.7424 10.64 37.7424 10.34ZM32.3624 7.06C33.8624 7.06 34.9624 8 35.1824 9.52H29.3824C29.7224 8 30.8424 7.06 32.3624 7.06Z" fill="white"/>
<path d="M42.3634 16V10.7C42.3634 8.44 43.4834 7.36 45.1034 7.36C45.5034 7.36 45.9234 7.44 46.3634 7.58L46.5834 5.08C46.1834 4.94 45.7434 4.86 45.2834 4.86C43.9434 4.86 42.9234 5.46 42.2634 6.64V5.14H39.7634V16H42.3634ZM49.4051 3.84C50.3451 3.84 51.0451 3.16 51.0451 2.2C51.0451 1.26 50.3451 0.56 49.4051 0.56C48.4651 0.56 47.7251 1.26 47.7251 2.2C47.7251 3.16 48.4451 3.84 49.4051 3.84ZM50.6851 5.14H48.0651V16H50.6851V5.14ZM52.679 10.56C52.679 12.18 53.219 13.54 54.299 14.64C55.399 15.74 56.779 16.28 58.479 16.28C60.179 16.28 61.559 15.74 62.639 14.64C63.739 13.54 64.279 12.18 64.279 10.56C64.279 8.96 63.739 7.62 62.639 6.52C61.559 5.42 60.179 4.86 58.479 4.86C56.779 4.86 55.399 5.42 54.299 6.52C53.219 7.62 52.679 8.96 52.679 10.56ZM61.659 10.56C61.659 11.48 61.359 12.26 60.739 12.9C60.119 13.54 59.379 13.86 58.479 13.86C57.579 13.86 56.839 13.54 56.219 12.9C55.599 12.26 55.299 11.48 55.299 10.56C55.299 9.66 55.599 8.88 56.219 8.24C56.839 7.6 57.579 7.28 58.479 7.28C59.379 7.28 60.119 7.6 60.739 8.24C61.359 8.88 61.659 9.66 61.659 10.56ZM67.1924 16.32C68.0524 16.32 68.7124 15.64 68.7124 14.76C68.7124 13.9 68.0524 13.24 67.1924 13.24C66.3124 13.24 65.6124 13.9 65.6124 14.76C65.6124 15.64 66.3124 16.32 67.1924 16.32Z" fill="#F6B50E"/>
</svg>
