<svg width="192" height="32" viewBox="0 0 192 32" fill="none" xmlns="http://www.w3.org/2000/svg">
<path fill-rule="evenodd" clip-rule="evenodd" d="M2.69445 26.3237C4.18349 26.3237 5.38891 25.1175 5.38891 23.6275V2.69623C5.38891 1.20621 4.18349 0 2.69445 0C1.20541 0 0 1.20621 0 2.69623V23.6275C0 25.1175 1.20541 26.3237 2.69445 26.3237ZM18.2002 26.5366C24.1209 26.5366 28.5171 22.102 28.5171 16.6386V16.5676C28.5171 11.1042 24.1564 6.74058 18.2711 6.74058C12.3504 6.74058 7.95421 11.1752 7.95421 16.6386V16.7095C7.95421 22.1729 12.315 26.5366 18.2002 26.5366ZM13.2722 16.6386C13.2722 19.4412 15.293 21.8891 18.2711 21.8891C21.3556 21.8891 23.1991 19.5122 23.1991 16.7095V16.6386C23.1991 13.8359 21.1783 11.388 18.2002 11.388C15.1158 11.388 13.2722 13.765 13.2722 16.5676V16.6386ZM40.1585 26.5366C46.0792 26.5366 50.4754 22.102 50.4754 16.6386V16.5676C50.4754 11.1042 46.1146 6.74058 40.2294 6.74058C34.3087 6.74058 29.9125 11.1752 29.9125 16.6386V16.7095C29.9125 22.1729 34.2732 26.5366 40.1585 26.5366ZM35.2305 16.6386C35.2305 19.4412 37.2513 21.8891 40.2294 21.8891C43.3138 21.8891 45.1574 19.5122 45.1574 16.7095V16.6386C45.1574 13.8359 43.1366 11.388 40.1585 11.388C37.074 11.388 35.2305 13.765 35.2305 16.5676V16.6386ZM55.487 32C56.976 32 58.1814 30.7938 58.1814 29.3038V23.6275C59.4578 25.153 61.2304 26.4656 64.1021 26.4656C68.6047 26.4656 72.7527 22.9889 72.7527 16.6386V16.5676C72.7527 10.2173 68.5338 6.74058 64.1021 6.74058C61.3013 6.74058 59.4932 8.05322 58.1814 9.82705V9.57871C58.1814 8.08869 56.976 6.88248 55.487 6.88248C53.9979 6.88248 52.7925 8.08869 52.7925 9.57871V29.3038C52.7925 30.7938 53.9979 32 55.487 32ZM58.1105 16.6386C58.1105 19.796 60.2023 21.8891 62.7195 21.8891C65.2366 21.8891 67.3638 19.8315 67.3638 16.6386V16.5676C67.3638 13.4102 65.2366 11.3171 62.7195 11.3171C60.2023 11.3171 58.1105 13.4102 58.1105 16.5676V16.6386ZM81.806 26.4656C85.9186 26.4656 89.0739 24.5499 89.0739 20.3282V20.2572C89.0739 16.7805 85.9895 15.5033 83.3305 14.6164C83.1283 14.5466 82.9284 14.4789 82.7325 14.4125C80.936 13.8037 79.4661 13.3055 79.4661 12.3459V12.2749C79.4661 11.5299 80.1397 10.9623 81.4515 10.9623C82.586 10.9623 84.0396 11.4235 85.5641 12.1685C85.9186 12.3459 86.1668 12.4169 86.5568 12.4169C87.7622 12.4169 88.7194 11.4945 88.7194 10.2882C88.7194 9.36585 88.2231 8.65632 87.4431 8.26608C85.5995 7.34368 83.5432 6.81153 81.5578 6.81153C77.7289 6.81153 74.609 8.97561 74.609 12.8426V12.9135C74.609 16.6031 77.6225 17.8448 80.2815 18.6253C80.5255 18.6998 80.7661 18.7709 81.0008 18.8402C82.7782 19.3655 84.2168 19.7907 84.2168 20.8248V20.8958C84.2168 21.7472 83.5078 22.3149 81.9478 22.3149C80.4233 22.3149 78.6152 21.7472 76.8071 20.612C76.5235 20.4346 76.1335 20.3282 75.7435 20.3282C74.5381 20.3282 73.6163 21.2506 73.6163 22.4568C73.6163 23.3082 74.0772 23.9468 74.6444 24.3016C76.9489 25.7916 79.4661 26.4656 81.806 26.4656ZM100.503 25.898C99.5099 26.2882 98.5881 26.4302 97.4181 26.4302C94.121 26.4302 91.8874 25.1175 91.8874 20.7184V11.7073H91.7102C90.4338 11.7073 89.4057 10.6785 89.4057 9.40133C89.4057 8.12417 90.4338 7.09534 91.7102 7.09534H91.8874V4.7184C91.8874 3.22838 93.0928 2.02217 94.5819 2.02217C96.0709 2.02217 97.2763 3.22838 97.2763 4.7184V7.09534H99.6517C100.928 7.09534 101.956 8.12417 101.956 9.40133C101.956 10.6785 100.928 11.7073 99.6517 11.7073H97.2763V19.8315C97.2763 21.0732 97.8081 21.6763 99.0135 21.6763C99.1134 21.6763 99.2696 21.665 99.406 21.6552L99.406 21.6552C99.5116 21.6476 99.6053 21.6408 99.6517 21.6408C100.857 21.6408 101.885 22.6341 101.885 23.8758C101.885 24.8337 101.247 25.6142 100.503 25.898ZM110.442 26.4656C113.172 26.4656 114.767 25.0111 116.008 23.4146V23.6275C116.008 25.1175 117.214 26.3237 118.703 26.3237C120.192 26.3237 121.397 25.1175 121.397 23.6275V9.57871C121.397 8.08869 120.192 6.88248 118.703 6.88248C117.214 6.88248 116.008 8.08869 116.008 9.57871V17.7029C116.008 20.2572 114.697 21.5698 112.64 21.5698C110.584 21.5698 109.379 20.2572 109.379 17.7029V9.57871C109.379 8.08869 108.173 6.88248 106.684 6.88248C105.195 6.88248 103.99 8.08869 103.99 9.57871V19.4058C103.99 23.7694 106.365 26.4656 110.442 26.4656ZM138.357 23.3792C137.045 25.153 135.237 26.4656 132.436 26.4656C128.004 26.4656 123.785 22.9889 123.785 16.6386V16.5676C123.785 10.2173 127.933 6.74058 132.436 6.74058C135.308 6.74058 137.08 8.05322 138.357 9.57871V2.69623C138.357 1.20621 139.562 0 141.051 0C142.54 0 143.745 1.20621 143.745 2.69623V23.6275C143.745 25.1175 142.54 26.3237 141.051 26.3237C139.562 26.3237 138.357 25.1175 138.357 23.6275V23.3792ZM133.819 21.8891C131.301 21.8891 129.174 19.796 129.174 16.6386V16.5676C129.174 13.3747 131.301 11.3171 133.819 11.3171C136.336 11.3171 138.427 13.4102 138.427 16.5676V16.6386C138.427 19.796 136.336 21.8891 133.819 21.8891ZM152.941 2.62528C152.941 4.18625 151.629 5.1796 149.927 5.1796C148.225 5.1796 146.913 4.18625 146.913 2.62528V2.55432C146.913 0.993348 148.225 0.0354767 149.927 0.0354767C151.629 0.0354767 152.941 0.993348 152.941 2.55432V2.62528ZM149.927 26.3237C151.416 26.3237 152.621 25.1175 152.621 23.6275V9.57871C152.621 8.08869 151.416 6.88248 149.927 6.88248C148.438 6.88248 147.233 8.08869 147.233 9.57871V23.6275C147.233 25.1175 148.438 26.3237 149.927 26.3237ZM175.75 16.6386C175.75 22.102 171.354 26.5366 165.433 26.5366C159.548 26.5366 155.187 22.1729 155.187 16.7095V16.6386C155.187 11.1752 159.583 6.74058 165.504 6.74058C171.389 6.74058 175.75 11.1042 175.75 16.5676V16.6386ZM165.504 21.8891C162.526 21.8891 160.505 19.4412 160.505 16.6386V16.5676C160.505 13.765 162.348 11.388 165.433 11.388C168.411 11.388 170.432 13.8359 170.432 16.6386V16.7095C170.432 19.5122 168.588 21.8891 165.504 21.8891ZM192 20.3282C192 24.5499 188.845 26.4656 184.732 26.4656C182.392 26.4656 179.875 25.7916 177.571 24.3016C177.003 23.9468 176.542 23.3082 176.542 22.4568C176.542 21.2506 177.464 20.3282 178.67 20.3282C179.06 20.3282 179.45 20.4346 179.733 20.612C181.541 21.7472 183.349 22.3149 184.874 22.3149C186.434 22.3149 187.143 21.7472 187.143 20.8958V20.8248C187.143 19.7907 185.704 19.3655 183.927 18.8402C183.692 18.7709 183.452 18.6998 183.208 18.6253C180.549 17.8448 177.535 16.6031 177.535 12.9135V12.8426C177.535 8.97561 180.655 6.81153 184.484 6.81153C186.469 6.81153 188.526 7.34368 190.369 8.26608C191.149 8.65632 191.645 9.36585 191.645 10.2882C191.645 11.4945 190.688 12.4169 189.483 12.4169C189.093 12.4169 188.845 12.3459 188.49 12.1685C186.966 11.4235 185.512 10.9623 184.378 10.9623C183.066 10.9623 182.392 11.5299 182.392 12.2749V12.3459C182.392 13.3055 183.862 13.8037 185.659 14.4125C185.854 14.4789 186.054 14.5466 186.257 14.6164C188.916 15.5033 192 16.7805 192 20.2572V20.3282Z" fill="white"/>
</svg>
