<svg width="262" height="19" fill="none" xmlns="http://www.w3.org/2000/svg"><path d="M1.28 18a.639.639 0 0 1-.432-.168.639.639 0 0 1-.168-.432V1.8c0-.176.056-.32.168-.432A.639.639 0 0 1 1.28 1.2h2.544c.4 0 .672.152.816.456l5.856 9.216V1.8c0-.176.056-.32.168-.432a.639.639 0 0 1 .432-.168h2.88c.176 0 .32.056.432.168a.585.585 0 0 1 .168.432v15.576a.67.67 0 0 1-.168.456.585.585 0 0 1-.432.168h-2.568a.858.858 0 0 1-.792-.456L4.76 8.664V17.4c0 .16-.056.304-.168.432A.585.585 0 0 1 4.16 18H1.28Zm15.69 0a.544.544 0 0 1-.36-.144.544.544 0 0 1-.144-.36c0-.096.008-.168.024-.216l5.64-15.408a.872.872 0 0 1 .312-.48c.16-.128.368-.192.624-.192h3.552c.256 0 .464.064.624.192.16.128.264.288.312.48L33.17 17.28l.048.216a.505.505 0 0 1-.168.36.488.488 0 0 1-.36.144h-2.952c-.384 0-.64-.168-.768-.504l-.936-2.448h-6.408l-.912 2.448c-.128.336-.392.504-.792.504H16.97Zm10.104-6.408-2.232-6.336-2.232 6.336h4.464ZM35.71 18a.639.639 0 0 1-.432-.168.639.639 0 0 1-.168-.432V1.8c0-.176.056-.32.168-.432a.639.639 0 0 1 .432-.168h2.592c.384 0 .664.176.84.528l4.224 7.56 4.224-7.56c.176-.352.456-.528.84-.528h2.568c.176 0 .32.056.432.168a.548.548 0 0 1 .192.432v15.6c0 .176-.064.32-.192.432a.585.585 0 0 1-.432.168h-2.856a.67.67 0 0 1-.456-.168.585.585 0 0 1-.168-.432v-9l-2.688 5.016c-.208.368-.488.552-.84.552h-1.248c-.208 0-.376-.048-.504-.144a1.242 1.242 0 0 1-.336-.408L39.19 8.4v9c0 .16-.056.304-.168.432a.585.585 0 0 1-.432.168h-2.88Zm18.315 0a.544.544 0 0 1-.36-.144.544.544 0 0 1-.144-.36c0-.096.008-.168.024-.216l5.64-15.408a.872.872 0 0 1 .312-.48c.16-.128.368-.192.624-.192h3.552c.256 0 .464.064.624.192.16.128.264.288.312.48l5.616 15.408.048.216a.505.505 0 0 1-.168.36.488.488 0 0 1-.36.144h-2.952c-.384 0-.64-.168-.768-.504l-.936-2.448H58.68l-.912 2.448c-.128.336-.392.504-.792.504h-2.952Zm10.104-6.408-2.232-6.336-2.232 6.336h4.464ZM72.764 18a.639.639 0 0 1-.432-.168.639.639 0 0 1-.168-.432V1.8c0-.176.056-.32.168-.432a.639.639 0 0 1 .432-.168h2.544c.4 0 .672.152.816.456l5.856 9.216V1.8c0-.176.056-.32.168-.432a.639.639 0 0 1 .432-.168h2.88c.176 0 .32.056.432.168a.585.585 0 0 1 .168.432v15.576a.67.67 0 0 1-.168.456.585.585 0 0 1-.432.168h-2.568a.858.858 0 0 1-.792-.456l-5.856-8.88V17.4c0 .16-.056.304-.168.432a.585.585 0 0 1-.432.168h-2.88Zm23.586.24c-2.304 0-4.104-.56-5.4-1.68-1.296-1.136-1.984-2.744-2.064-4.824-.016-.464-.024-1.2-.024-2.208 0-1.008.008-1.744.024-2.208.08-2.032.776-3.6 2.088-4.704C92.302 1.512 94.094.96 96.35.96c1.52 0 2.84.248 3.96.744 1.136.496 2 1.128 2.592 1.896.608.768.928 1.56.96 2.376a.455.455 0 0 1-.168.36.488.488 0 0 1-.36.144H99.83a.865.865 0 0 1-.384-.072.559.559 0 0 1-.24-.264 3.058 3.058 0 0 0-.984-1.2c-.448-.352-1.072-.528-1.872-.528-1.904 0-2.904 1.008-3 3.024a64.86 64.86 0 0 0-.024 2.088c0 .928.008 1.624.024 2.088.096 2.112 1.12 3.168 3.072 3.168.944 0 1.696-.24 2.256-.72.576-.496.864-1.248.864-2.256v-.456h-2.256a.585.585 0 0 1-.432-.168.67.67 0 0 1-.168-.456V8.952c0-.176.056-.32.168-.432a.548.548 0 0 1 .432-.192h6.048c.176 0 .32.064.432.192a.585.585 0 0 1 .168.432v2.736c0 1.36-.312 2.536-.936 3.528-.624.976-1.512 1.728-2.664 2.256-1.136.512-2.464.768-3.984.768Zm9.003-.24a.544.544 0 0 1-.36-.144.544.544 0 0 1-.144-.36c0-.096.008-.168.024-.216l5.64-15.408a.872.872 0 0 1 .312-.48c.16-.128.368-.192.624-.192h3.552c.256 0 .464.064.624.192.16.128.264.288.312.48l5.616 15.408.048.216a.505.505 0 0 1-.168.36.488.488 0 0 1-.36.144h-2.952c-.384 0-.64-.168-.768-.504l-.936-2.448h-6.408l-.912 2.448c-.128.336-.392.504-.792.504h-2.952Zm10.104-6.408-2.232-6.336-2.232 6.336h4.464ZM124.093 18a.639.639 0 0 1-.432-.168.639.639 0 0 1-.168-.432V1.8c0-.176.056-.32.168-.432a.639.639 0 0 1 .432-.168h2.544c.4 0 .672.152.816.456l5.856 9.216V1.8c0-.176.056-.32.168-.432a.639.639 0 0 1 .432-.168h2.88c.176 0 .32.056.432.168a.585.585 0 0 1 .168.432v15.576a.67.67 0 0 1-.168.456.585.585 0 0 1-.432.168h-2.568a.858.858 0 0 1-.792-.456l-5.856-8.88V17.4c0 .16-.056.304-.168.432a.585.585 0 0 1-.432.168h-2.88Zm17.25 0a.639.639 0 0 1-.432-.168.639.639 0 0 1-.168-.432V1.8c0-.176.056-.32.168-.432a.639.639 0 0 1 .432-.168h3.168c.176 0 .32.056.432.168a.585.585 0 0 1 .168.432v12.576h7.272c.176 0 .32.064.432.192a.585.585 0 0 1 .168.432v2.4c0 .16-.056.304-.168.432a.585.585 0 0 1-.432.168h-11.04Zm14.32 0a.639.639 0 0 1-.432-.168.639.639 0 0 1-.168-.432V1.8c0-.176.056-.32.168-.432a.639.639 0 0 1 .432-.168h3.216c.176 0 .32.056.432.168a.548.548 0 0 1 .192.432v15.6c0 .176-.064.32-.192.432a.585.585 0 0 1-.432.168h-3.216Zm7.781 0a.639.639 0 0 1-.432-.168.639.639 0 0 1-.168-.432V1.8c0-.176.056-.32.168-.432a.639.639 0 0 1 .432-.168h3.024c.176 0 .32.056.432.168a.585.585 0 0 1 .168.432v5.328l4.44-5.472c.192-.304.504-.456.936-.456h3.456c.144 0 .264.056.36.168a.46.46 0 0 1 .144.336.55.55 0 0 1-.072.288l-5.76 7.248 6.192 7.968c.064.064.096.16.096.288a.544.544 0 0 1-.144.36.488.488 0 0 1-.36.144h-3.576c-.384 0-.704-.16-.96-.48l-4.752-5.928V17.4c0 .176-.056.32-.168.432a.585.585 0 0 1-.432.168h-3.024Zm15.914 0a.639.639 0 0 1-.432-.168.639.639 0 0 1-.168-.432V1.8c0-.176.056-.32.168-.432a.639.639 0 0 1 .432-.168h3.168c.176 0 .32.056.432.168a.585.585 0 0 1 .168.432v12.576h7.272c.176 0 .32.064.432.192a.585.585 0 0 1 .168.432v2.4c0 .16-.056.304-.168.432a.585.585 0 0 1-.432.168h-11.04Zm12.76 0a.544.544 0 0 1-.36-.144.544.544 0 0 1-.144-.36c0-.096.008-.168.024-.216l5.64-15.408a.872.872 0 0 1 .312-.48c.16-.128.368-.192.624-.192h3.552c.256 0 .464.064.624.192.16.128.264.288.312.48l5.616 15.408.048.216a.505.505 0 0 1-.168.36.488.488 0 0 1-.36.144h-2.952c-.384 0-.64-.168-.768-.504l-.936-2.448h-6.408l-.912 2.448c-.128.336-.392.504-.792.504h-2.952Zm10.104-6.408-2.232-6.336-2.232 6.336h4.464ZM210.858 18a.639.639 0 0 1-.432-.168.639.639 0 0 1-.168-.432V1.8c0-.176.056-.32.168-.432a.639.639 0 0 1 .432-.168h6.528c2.096 0 3.728.48 4.896 1.44 1.184.944 1.776 2.288 1.776 4.032 0 1.12-.264 2.072-.792 2.856-.528.784-1.256 1.384-2.184 1.8l3.288 5.904a.597.597 0 0 1 .072.264.505.505 0 0 1-.168.36.46.46 0 0 1-.336.144h-3.192c-.464 0-.792-.216-.984-.648l-2.736-5.28h-2.448V17.4c0 .176-.064.32-.192.432a.585.585 0 0 1-.432.168h-3.096Zm6.48-9.336c.736 0 1.296-.176 1.68-.528.384-.368.576-.872.576-1.512s-.192-1.144-.576-1.512c-.368-.384-.928-.576-1.68-.576h-2.76v4.128h2.76ZM231.889 18a.67.67 0 0 1-.456-.168.585.585 0 0 1-.168-.432v-1.704c0-.48.2-.872.6-1.176l2.496-2.448c1.456-1.12 2.56-1.992 3.312-2.616.752-.624 1.32-1.192 1.704-1.704.384-.512.576-1 .576-1.464 0-1.264-.624-1.896-1.872-1.896-.656 0-1.16.2-1.512.6-.352.384-.584.872-.696 1.464-.096.368-.368.552-.816.552h-3a.488.488 0 0 1-.504-.504 5.546 5.546 0 0 1 .84-2.808c.544-.864 1.304-1.544 2.28-2.04.992-.512 2.128-.768 3.408-.768 1.344 0 2.496.216 3.456.648.96.432 1.688 1.04 2.184 1.824.496.784.744 1.696.744 2.736 0 1.12-.352 2.144-1.056 3.072-.688.912-1.744 1.904-3.168 2.976l-2.208 2.232h6.168c.176 0 .32.056.432.168a.548.548 0 0 1 .192.432V17.4c0 .176-.064.32-.192.432a.585.585 0 0 1-.432.168h-12.312Zm23.22 0a.639.639 0 0 1-.432-.168.639.639 0 0 1-.168-.432v-2.712h-7.464a.585.585 0 0 1-.432-.168.585.585 0 0 1-.168-.432v-2.28c0-.24.088-.488.264-.744l6.984-9.456c.224-.272.52-.408.888-.408h3.504c.176 0 .32.056.432.168a.585.585 0 0 1 .168.432v9.312h2.112c.192 0 .344.064.456.192a.555.555 0 0 1 .168.408v2.376c0 .176-.056.32-.168.432a.585.585 0 0 1-.432.168h-2.136V17.4c0 .16-.056.304-.168.432a.585.585 0 0 1-.432.168h-2.976Zm-.504-6.72V5.616l-4.032 5.664h4.032Z" fill="#7296EE"/></svg>