<svg width="121" height="33" fill="none" xmlns="http://www.w3.org/2000/svg"><path fill-rule="evenodd" clip-rule="evenodd" d="M34.699 25h5.44V13.576c0-.77-.068-1.558-.204-2.363a6.036 6.036 0 0 0-.8-2.176c-.396-.646-.963-1.179-1.7-1.598-.736-.42-1.705-.629-2.906-.629-1.292 0-2.477.29-3.553.867a6.785 6.785 0 0 0-2.601 2.465V.18h-5.44V25h5.44V14.766c.158-.476.385-.907.68-1.292.294-.385.617-.72.969-1.003a4.168 4.168 0 0 1 1.088-.646c.374-.147.72-.22 1.037-.22.793 0 1.416.271 1.87.815.453.544.68 1.394.68 2.55V25ZM16 7.422c.408.25.646.42.714.51l2.448-4.624a28.403 28.403 0 0 0-1.785-.952 16.76 16.76 0 0 0-2.091-.85c-.748-.25-1.53-.453-2.346-.612a12.973 12.973 0 0 0-2.482-.238c-1.202 0-2.34.17-3.417.51a8.435 8.435 0 0 0-2.84 1.513 7.266 7.266 0 0 0-1.937 2.465c-.476.975-.714 2.097-.714 3.366 0 .907.13 1.7.39 2.38.261.68.658 1.28 1.19 1.802.533.521 1.208.98 2.024 1.377.816.397 1.779.765 2.89 1.105.335.1.66.196.976.288l1.702.495c.568.175 1.07.362 1.504.56.521.238.929.504 1.224.8.294.294.442.668.442 1.121 0 1.201-.986 1.802-2.958 1.802-.93 0-1.848-.125-2.754-.374a18.94 18.94 0 0 1-2.465-.85 13.255 13.255 0 0 1-1.853-.952c-.499-.317-.794-.533-.884-.646L.53 22.28c.702.476 1.467.895 2.295 1.258a21.63 21.63 0 0 0 2.567.935 19.689 19.689 0 0 0 5.44.8 14.4 14.4 0 0 0 3.366-.392c1.088-.26 2.051-.68 2.89-1.258a6.45 6.45 0 0 0 2.023-2.278c.51-.94.765-2.09.765-3.45 0-1.112-.176-2.064-.527-2.857a5.646 5.646 0 0 0-1.496-2.023c-.646-.555-1.434-1.02-2.363-1.394-.93-.374-1.972-.72-3.128-1.037-.28-.075-.548-.149-.805-.22l-1.405-.392c-.635-.181-1.162-.38-1.581-.595-.42-.215-.737-.459-.952-.731-.216-.272-.323-.612-.323-1.02 0-1.337.997-2.006 2.992-2.006.725 0 1.45.102 2.176.306a14.81 14.81 0 0 1 2.006.714c.612.272 1.122.533 1.53.782ZM52.479 25.34c-1.519 0-2.873-.25-4.063-.748-1.19-.499-2.193-1.173-3.01-2.023a8.541 8.541 0 0 1-1.852-2.958 9.969 9.969 0 0 1-.63-3.519c0-1.224.21-2.397.63-3.519a8.54 8.54 0 0 1 1.853-2.958c.816-.85 1.819-1.53 3.009-2.04s2.544-.765 4.063-.765c1.519 0 2.867.255 4.046.765 1.178.51 2.176 1.19 2.992 2.04a8.755 8.755 0 0 1 1.87 2.958 9.737 9.737 0 0 1 .646 3.52 9.97 9.97 0 0 1-.63 3.518 8.543 8.543 0 0 1-1.852 2.958c-.816.85-1.82 1.524-3.01 2.023-1.19.499-2.543.748-4.062.748Zm-2.856-5.865c-.748-.85-1.122-1.978-1.122-3.383 0-.68.102-1.309.306-1.887a4.568 4.568 0 0 1 .833-1.479 3.7 3.7 0 0 1 2.839-1.292c1.133 0 2.074.425 2.822 1.275.748.85 1.122 1.978 1.122 3.383 0 .68-.102 1.31-.306 1.887a4.57 4.57 0 0 1-.833 1.48 3.753 3.753 0 0 1-1.241.951c-.476.227-.998.34-1.564.34-1.156 0-2.108-.425-2.856-1.275Zm26.654-7.667c-1.315.023-2.505.238-3.57.646-1.065.408-1.836 1.02-2.312 1.836V25h-5.44V7.15h4.998v3.604c.612-1.201 1.4-2.142 2.363-2.822.963-.68 1.989-1.031 3.077-1.054h.544c.113 0 .227.011.34.034v4.896Zm11.507 13.124a21.718 21.718 0 0 0 2.567-.884l-1.054-4.318a7.728 7.728 0 0 1-1.122.442c-.43.136-.85.204-1.258.204-.453 0-.827-.13-1.122-.39-.295-.262-.442-.687-.442-1.276v-7.446h3.638V7.15h-3.638V1.472h-5.44V7.15h-2.278v4.114h2.278v9.316c0 .861.13 1.598.391 2.21.26.612.618 1.105 1.071 1.48.453.373.98.645 1.581.815.6.17 1.241.255 1.921.255.975 0 1.944-.136 2.907-.408ZM92.627.18h5.44v18.462c0 1.36.578 2.04 1.734 2.04.272 0 .573-.04.901-.119.329-.08.629-.198.901-.357l.714 4.08c-.68.317-1.462.567-2.346.748a12.39 12.39 0 0 1-2.482.272c-1.564 0-2.765-.408-3.604-1.224-.839-.816-1.258-1.995-1.258-3.536V.18Zm12.731 27.846a7.992 7.992 0 0 1-1.275-.34v4.658c.476.181.947.312 1.411.391.465.08.924.12 1.377.12 1.678 0 3.128-.46 4.352-1.378a7.107 7.107 0 0 0 2.55-3.587l6.8-20.74h-5.1l-3.57 13.192-4.148-13.192h-5.61l6.8 17.85c-.294 1.179-.623 1.995-.986 2.448-.362.453-.872.68-1.53.68-.317 0-.674-.034-1.071-.102Z" fill="#34313D"/></svg>
